<?xml version="1.0" encoding="UTF-8" standalone="no"?>
<!DOCTYPE svg PUBLIC "-//W3C//DTD SVG 1.1//EN" "http://www.w3.org/Graphics/SVG/1.1/DTD/svg11.dtd">
<svg width="100%" height="100%" viewBox="0 0 700 700" version="1.1" xmlns="http://www.w3.org/2000/svg" xmlns:xlink="http://www.w3.org/1999/xlink" xml:space="preserve" xmlns:serif="http://www.serif.com/" style="fill-rule:evenodd;clip-rule:evenodd;stroke-linejoin:round;stroke-miterlimit:2;">
    <g transform="matrix(1.110899,0,0,1.164329,-54.255258,-72.726453)">
        <path d="M629,301.63L629,431.37C629,533.27 542.291,616 435.49,616L299.51,616C192.709,616 106,533.27 106,431.37L106,301.63C106,199.73 192.709,117 299.51,117L435.49,117C542.291,117 629,199.73 629,301.63Z" style="fill:rgb(231,177,10);"/>
    </g>
    <g transform="matrix(0,0.878882,-0.878882,0,722.428571,37.723602)">
        <path d="M320.293,288.415C328.002,272.996 343.761,263.256 361,263.256C378.239,263.256 393.998,272.996 401.707,288.415C428.746,342.492 463.786,412.572 489.067,463.134C496.121,477.242 495.367,493.997 487.075,507.415C478.782,520.833 464.133,529 448.359,529L273.641,529C257.867,529 243.218,520.833 234.925,507.415C226.633,493.997 225.879,477.242 232.933,463.134C258.214,412.572 293.254,342.492 320.293,288.415Z" style="fill:rgb(23,28,37);"/>
    </g>
</svg>
