<?xml version="1.0" encoding="UTF-8" standalone="no"?>
<!DOCTYPE svg PUBLIC "-//W3C//DTD SVG 1.1//EN" "http://www.w3.org/Graphics/SVG/1.1/DTD/svg11.dtd">
<svg width="100%" height="100%" viewBox="0 0 700 700" version="1.1" xmlns="http://www.w3.org/2000/svg" xmlns:xlink="http://www.w3.org/1999/xlink" xml:space="preserve" xmlns:serif="http://www.serif.com/" style="fill-rule:evenodd;clip-rule:evenodd;stroke-linejoin:round;stroke-miterlimit:2;">
    <g transform="matrix(1.557292,0,0,1.557292,-293.833333,-281.0625)">
        <path d="M403.285,235.858C405.693,231.042 410.616,228 416,228C421.384,228 426.307,231.042 428.715,235.858L478.07,334.568L587.2,351.005C592.525,351.807 596.939,355.548 598.603,360.669C600.267,365.79 598.895,371.411 595.058,375.189L516.432,452.632L534.522,561.501C535.405,566.812 533.211,572.166 528.855,575.331C524.499,578.496 518.728,578.928 513.95,576.447L416,525.6L318.05,576.447C313.272,578.928 307.501,578.496 303.145,575.331C298.789,572.166 296.595,566.812 297.478,561.501L315.568,452.632L236.942,375.189C233.105,371.411 231.733,365.79 233.397,360.669C235.061,355.548 239.475,351.807 244.8,351.005L353.93,334.568L403.285,235.858Z" style="fill:rgb(232,176,11);"/>
    </g>
</svg>
